<svg width="190" height="190" viewBox="0 0 190 190" fill="none" xmlns="http://www.w3.org/2000/svg">
<g clip-path="url(#clip0)">
<path d="M186.936 95.0015C186.936 145.775 145.774 186.936 95.0007 186.936C44.2271 186.936 3.06592 145.775 3.06592 95.0015C3.06592 44.2278 44.2271 3.06665 95.0007 3.06665C145.774 3.06665 186.936 44.2278 186.936 95.0015Z" fill="#1ABC9C"/>
<path d="M185.556 110.783C183.044 125.401 177.099 138.793 168.549 150.162C163.4 157.057 157.271 163.186 150.407 168.365C149.303 168.457 148.2 168.549 147.097 168.549C125.094 168.549 107.259 147.955 107.259 122.582C107.259 97.2071 125.094 76.6145 147.097 76.6145C165.545 76.6145 181.021 91.1095 185.556 110.753V110.783Z" fill="#F5F7FA"/>
<path d="M171.154 43.4872C170.847 43.8553 170.54 44.2234 170.204 44.5601C167.414 47.3178 163.584 49.0341 159.355 49.0341H128.71C120.251 49.0341 113.388 42.1689 113.388 33.7116C113.388 29.483 115.104 25.6524 117.862 22.8632C120.651 20.1055 124.482 18.3892 128.71 18.3892H159.355C167.812 18.3892 174.678 25.2528 174.678 33.7116C174.678 37.4195 173.359 40.8207 171.154 43.4872Z" fill="#FF958A"/>
<path d="M49.1563 174.679C40.0855 169.468 31.9948 162.757 25.2523 154.851C27.214 148.599 32.945 144.034 39.8401 144.034H70.485C78.9423 144.034 85.8075 150.897 85.8075 159.356C85.8075 167.813 78.9423 174.679 70.485 174.679H49.1563Z" fill="#FF958A"/>
<path d="M99.5661 55.7451C100.609 55.3471 101.682 55.1631 102.785 55.1631H103.674C108.638 55.1631 113.112 58.9009 113.388 63.8657C113.663 69.1673 109.434 73.55 104.194 73.55H102.785C101.682 73.55 100.609 73.366 99.5661 72.968L94.0506 70.8836C93.3458 70.6082 92.6411 70.4855 91.9363 70.4855C88.6877 70.4855 85.8073 73.1206 85.8073 76.6145C85.8073 77.7487 85.746 78.8515 85.5933 79.9244C85.2866 82.5595 86.7261 85.0718 89.1172 86.1447L94.7554 88.7184C95.7669 89.1792 96.6557 89.7912 97.4518 90.5888L98.4334 91.5689C102.141 95.2768 102.019 101.344 98.0653 104.9C94.3873 108.24 88.5965 107.719 85.0711 104.195L84.4591 103.581C83.6616 102.785 83.0496 101.897 82.5902 100.885L79.5257 94.1426C75.5724 98.9234 70.0554 102.356 63.7738 103.643L66.8383 111.825C67.2363 112.868 67.4203 113.941 67.4203 115.043V116.453C67.4203 121.693 63.0376 125.922 57.7361 125.646C52.7712 125.371 49.0334 120.896 49.0334 115.932V115.043C49.0334 113.941 49.2174 112.868 49.6155 111.825L52.68 103.643C46.3983 102.356 40.8814 98.9234 36.928 94.1426L33.8636 100.885C33.4042 101.897 32.7922 102.785 31.9946 103.581L31.0145 104.563C27.3066 108.271 21.239 108.148 17.6837 104.195C14.3439 100.517 14.8646 94.7262 18.3885 91.2008L19.002 90.5888C19.798 89.7912 20.6868 89.1792 21.6984 88.7184L26.325 86.604C29.3282 85.2559 31.0145 82.13 30.7377 78.8201C30.6764 78.1153 30.6464 77.3492 30.6464 76.6145C30.6464 72.3545 26.3864 69.4127 22.4031 70.8836L16.8861 72.968C15.8447 73.366 14.7718 73.55 13.669 73.55H12.2595C9.92968 73.55 7.81536 72.6911 6.19184 71.2517C4.13887 69.474 2.91337 66.8075 3.066 63.8657C3.34132 58.9009 7.81536 55.1631 12.7802 55.1631H13.669C14.7718 55.1631 15.8447 55.3471 16.8861 55.7451L22.4031 57.8295C23.1079 58.1049 23.8127 58.2276 24.5174 58.2276C27.766 58.2276 30.6464 55.5925 30.6464 52.0986C30.6464 50.9644 30.7078 49.8616 30.8604 48.7887C31.1672 46.1536 29.7277 43.6398 27.3365 42.5684L21.6984 39.9932C20.6868 39.5339 19.798 38.9204 19.002 38.1243L18.0204 37.1442C14.3124 33.4363 14.4351 27.3687 18.3885 23.8134C22.0665 20.4735 27.8573 20.9943 31.3811 24.5181L31.9946 25.1301C32.7922 25.9277 33.4042 26.8165 33.8636 27.828L36.928 34.569C40.8814 29.7882 46.3983 26.3571 52.68 25.0703L49.6155 16.8868C49.2174 15.8454 49.0334 14.7725 49.0334 13.6697V12.2602C49.0334 7.02 53.4162 2.79135 58.7177 3.06668C61.8734 3.25073 64.5399 5.11965 66.0407 7.72477C66.9295 9.22559 67.4203 10.9733 67.4203 12.7809V13.6697C67.4203 14.7725 67.2363 15.8454 66.8383 16.8868L63.7738 25.0703C70.0554 26.3571 75.5724 29.7882 79.5257 34.569L82.5902 27.828C83.0496 26.8165 83.6616 25.9277 84.4591 25.1301L85.4392 24.15C89.1471 20.4421 95.2148 20.5648 98.7701 24.5181C102.11 28.1946 101.589 33.9869 98.0653 37.5108L97.4518 38.1243C96.6557 38.9204 95.7669 39.5339 94.7554 39.9932L89.7292 42.2916C86.9715 43.5485 85.3779 46.399 85.6846 49.4321C85.746 50.291 85.8073 51.2098 85.8073 52.0986C85.8073 56.3586 90.0674 59.3004 94.0506 57.8295L99.5661 55.7451Z" fill="#F9D48A"/>
<path d="M55.1621 33.7115H61.2912V39.8406H55.1621V33.7115Z" fill="#232323"/>
<path d="M39.8402 45.9698H45.9692V52.0989H39.8402V45.9698Z" fill="#232323"/>
<path d="M42.9042 61.292H49.0332V67.421H42.9042V61.292Z" fill="#232323"/>
<path d="M55.1621 88.8724H61.2912V95.0015H55.1621V88.8724Z" fill="#232323"/>
<path d="M70.4847 76.6145H76.6138V82.7435H70.4847V76.6145Z" fill="#232323"/>
<path d="M39.8397 76.6145H45.9688V82.7435H39.8397V76.6145Z" fill="#232323"/>
<path d="M61.2911 61.292H67.4202V67.421H61.2911V61.292Z" fill="#232323"/>
<path d="M70.4847 42.905H76.6138V49.0341H70.4847V42.905Z" fill="#232323"/>
<path d="M55.1621 45.9695H61.2912V52.0985H55.1621V45.9695Z" fill="#232323"/>
<path d="M73.5492 61.292H79.6782V67.421H73.5492V61.292Z" fill="#232323"/>
<path d="M55.1621 73.5499H61.2912V79.6789H55.1621V73.5499Z" fill="#232323"/>
<path d="M174.833 43.5973C176.666 40.7378 177.742 37.3516 177.742 33.711C177.742 23.5703 169.496 15.324 159.355 15.324H146.714C131.315 5.30904 113.455 0.00154583 95.0008 0.00154583C85.541 0.00154583 76.2337 1.4485 67.2767 4.17782C65.1773 1.77321 62.2236 0.194573 58.8793 0.0195018C55.4601 -0.16754 52.2505 1.03102 49.7875 3.3668C47.3605 5.67116 45.9689 8.91222 45.9689 12.2595V13.6571C45.9689 15.137 46.2322 16.5869 46.75 17.9591L48.6354 22.9882C44.6671 24.299 40.9951 26.4208 37.8632 29.1995L36.6617 26.5585C36.0497 25.2133 35.2057 24.0057 34.1733 22.9703L33.5508 22.3448C28.7311 17.5206 21.1641 17.169 16.3265 21.5263C13.7947 23.8067 12.3507 26.9296 12.2625 30.3248C12.1772 33.6706 13.482 36.9505 15.8477 39.3132L16.8353 40.3023C17.8767 41.3438 19.0842 42.1817 20.4324 42.7937L26.0557 45.3495C27.2482 45.8926 27.971 47.1421 27.8124 48.402C27.6582 49.6305 27.5819 50.8754 27.5819 52.0979C27.5819 53.1095 27.1061 54.0192 26.2726 54.5953C25.4362 55.1744 24.4127 55.2941 23.473 54.9484L17.959 52.876C16.5779 52.3583 15.1309 52.0979 13.657 52.0979H12.7802C5.96139 52.0979 0.357614 57.1944 0.0164497 63.7035C-0.145154 66.8009 0.881331 69.7307 2.82657 72.0935C0.978593 79.5587 0.00148634 87.2498 0.00148634 95.0008C0.00148634 147.382 42.6156 190 95.0008 190C147.384 190 190 147.382 190 95.0008C190 76.6318 184.729 58.9287 174.833 43.5973ZM171.613 33.711C171.613 40.4714 166.116 45.9689 159.355 45.9689H128.71C121.95 45.9689 116.452 40.4714 116.452 33.711C116.452 26.9505 121.95 21.453 128.71 21.453H159.355C166.116 21.453 171.613 26.9505 171.613 33.711ZM12.7802 58.2269H13.657C14.3917 58.2269 15.1219 58.3586 15.8088 58.616L21.3213 60.6839C24.1284 61.7358 27.2871 61.3468 29.7636 59.6335C32.237 57.9202 33.7109 55.1041 33.7109 52.0979C33.7109 51.1268 33.7753 50.1362 33.895 49.1621C34.3917 45.2118 32.261 41.4365 28.5964 39.7726L22.9732 37.2169C22.2984 36.9101 21.6953 36.4897 21.1776 35.9719L20.187 34.9799C18.9855 33.7783 18.348 32.1847 18.3944 30.4864C18.4378 28.7895 19.1606 27.2259 20.4294 26.0827C22.8101 23.9414 26.7515 24.2137 29.2189 26.6782L29.8429 27.3067C30.3606 27.8244 30.7811 28.4304 31.0878 29.0993L36.1814 40.3023L39.3042 36.5151C42.87 32.1877 47.8438 29.1905 53.3054 28.0788L56.8203 27.3605L52.4869 15.8043C52.2295 15.119 52.0979 14.3948 52.0979 13.6571V12.2595C52.0979 10.5612 52.7787 8.98404 54.0102 7.81241C55.2417 6.64527 56.9026 6.04823 58.5575 6.13951C61.7537 6.3086 64.3559 9.2863 64.3559 12.7802V13.6571C64.3559 14.3948 64.2242 15.119 63.9638 15.8073L59.6334 27.3575L63.1483 28.0758C68.6099 29.1876 73.5822 32.1847 77.1495 36.5121L80.2724 40.2993L85.3659 29.0993C85.6756 28.4244 86.0916 27.8184 86.6138 27.2962L87.5999 26.3101C88.7985 25.1085 90.3861 24.4741 92.0949 24.5175C93.7932 24.5609 95.3569 25.2836 96.4986 26.5525C98.6414 28.9302 98.372 32.8745 95.8986 35.351L95.2791 35.9689C94.7614 36.4867 94.1583 36.9071 93.4835 37.2139L88.4513 39.5003C84.5294 41.2824 82.1877 45.3929 82.6231 49.7322C82.7024 50.5103 82.7428 51.2974 82.7428 52.0979C82.7428 55.1041 84.2167 57.9202 86.6901 59.6335C89.1666 61.3468 92.3194 61.7418 95.1355 60.6809L100.642 58.616C101.332 58.3586 102.062 58.2269 102.797 58.2269H103.674C107.17 58.2269 110.145 60.826 110.314 64.0222C110.403 65.728 109.809 67.3441 108.638 68.5756C107.47 69.8071 105.893 70.4849 104.194 70.4849H102.797C102.058 70.4849 101.332 70.3532 100.645 70.0958L95.1325 68.0264C92.3194 66.973 89.1621 67.362 86.6901 69.0783C84.2167 70.7916 82.7428 73.6077 82.7428 76.6139C82.7428 77.6134 82.6785 78.5935 82.5588 79.5527C82.062 83.503 84.1928 87.2753 87.8573 88.9392L93.4805 91.4949C94.1553 91.8017 94.7584 92.2206 95.2761 92.7384L96.2667 93.7319C97.4682 94.9305 98.1057 96.5271 98.0593 98.2239C98.0159 99.9223 97.2932 101.484 96.0243 102.628C93.6466 104.773 89.7053 104.498 87.2348 102.034L86.6108 101.405C86.0916 100.887 85.6726 100.281 85.3659 99.6125L80.2724 88.4065L77.1495 92.1967C73.5822 96.5241 68.6129 99.5213 63.1483 100.633L59.6334 101.35L63.9668 112.906C64.2242 113.593 64.3559 114.316 64.3559 115.055V116.452C64.3559 118.149 63.675 119.728 62.4435 120.899C61.212 122.07 59.5287 122.652 57.8962 122.572C54.7 122.403 52.0979 119.424 52.0979 115.932V115.055C52.0979 114.316 52.2295 113.593 52.4899 112.903L56.8203 101.353L53.3054 100.636C47.8408 99.5242 42.87 96.5271 39.3042 92.1997L36.1814 88.4095L31.0878 99.6095C30.7781 100.284 30.3606 100.89 29.8399 101.411L28.8538 102.399C27.6523 103.597 26.0467 104.23 24.3573 104.191C22.6605 104.148 21.0968 103.425 19.9536 102.156C17.8124 99.7786 18.0817 95.8343 20.5551 93.3579L21.1746 92.7384C21.6924 92.2206 22.2954 91.8017 22.9702 91.4949L27.5819 89.3986C31.6849 87.5356 34.1793 83.1873 33.7932 78.5816C33.7408 77.9351 33.7109 77.2783 33.7109 76.6139C33.7109 73.6077 32.237 70.7916 29.7636 69.0783C27.2901 67.365 24.1344 66.973 21.3183 68.0294L15.8088 70.0988C15.1219 70.3532 14.3947 70.4849 13.657 70.4849H12.2595C10.5611 70.4849 8.98398 69.8071 7.81535 68.5726C6.64521 67.3411 6.05117 65.7251 6.13945 64.0222C6.30854 60.826 9.28325 58.2269 12.7802 58.2269ZM28.8074 154.218C30.7901 149.907 35.0292 147.097 39.8399 147.097H70.4848C77.2453 147.097 82.7428 152.595 82.7428 159.355C82.7428 166.116 77.2453 171.613 70.4848 171.613H50.0419C45.2821 168.809 40.808 165.572 36.6677 161.96C38.8897 161.206 40.021 159.674 40.832 158.552C41.8525 157.142 42.469 156.291 45.9689 156.291V150.162C39.8549 150.162 37.6268 152.53 35.8686 154.954C35.0127 156.137 34.9035 156.291 33.7109 156.291V159.262C32.0126 157.642 30.3741 155.969 28.8074 154.218ZM62.6336 177.742H70.4848C80.6255 177.742 88.8718 169.496 88.8718 159.355C88.8718 149.215 80.6255 140.968 70.4848 140.968H39.8399C33.5703 140.968 27.962 144.14 24.6312 149.185C13.0465 134.173 6.13047 115.382 6.13047 95.0008C6.13047 88.5412 6.86218 82.1294 8.23582 75.8717C9.52566 76.3221 10.8739 76.6139 12.2595 76.6139H13.657C15.1339 76.6139 16.5839 76.3535 17.962 75.8328L23.47 73.7663C24.4217 73.4117 25.4362 73.5374 26.2726 74.1165C27.1061 74.6926 27.5819 75.6024 27.5819 76.6139C27.5819 77.4443 27.6193 78.2688 27.6867 79.0903C27.8573 81.1582 26.8248 83.0152 25.0471 83.8217L20.4324 85.9211C19.0872 86.5331 17.8767 87.3725 16.8353 88.4155L16.2188 89.0305C11.3976 93.8487 11.0399 101.417 15.3973 106.262C17.6747 108.791 20.8005 110.234 24.1957 110.323C27.5296 110.412 30.8185 109.104 33.1842 106.738L34.1673 105.753C35.2087 104.715 36.0497 103.505 36.6617 102.156L37.8632 99.5213C40.9921 102.3 44.6671 104.42 48.6354 105.733L46.753 110.756C46.2322 112.125 45.9689 113.575 45.9689 115.055V115.932C45.9689 122.746 51.0654 128.351 57.5715 128.692C57.7944 128.704 58.0189 128.71 58.2388 128.71C61.3931 128.71 64.3618 127.527 66.6632 125.345C69.0932 123.041 70.4848 119.798 70.4848 116.452V115.055C70.4848 113.575 70.2215 112.125 69.7038 110.753L67.8184 105.724C71.7866 104.411 75.4586 102.291 78.5905 99.5123L79.792 102.153C80.404 103.499 81.248 104.706 82.2804 105.742L82.9014 106.367C87.7226 111.187 95.2851 111.54 100.127 107.185C102.659 104.905 104.101 101.779 104.191 98.387C104.277 95.0412 102.972 91.7643 100.606 89.4016L99.6185 88.4125C98.577 87.3695 97.3695 86.5331 96.0213 85.9211L90.3981 83.3653C89.2055 82.8222 88.4827 81.5727 88.6414 80.3128C88.7955 79.0813 88.8718 77.8334 88.8718 76.6139C88.8718 75.6024 89.3461 74.6926 90.1796 74.1165C91.013 73.5344 92.038 73.4117 92.9807 73.7663L98.4917 75.8358C99.8699 76.3535 101.32 76.6139 102.797 76.6139H104.194C107.54 76.6139 110.78 75.2223 113.084 72.7952C115.423 70.3308 116.611 67.1047 116.437 63.7035C116.096 57.1944 110.492 52.0979 103.674 52.0979H102.797C101.326 52.0979 99.8758 52.3583 98.4917 52.879L92.9837 54.944C92.0335 55.3001 91.0175 55.1774 90.1796 54.5953C89.3461 54.0192 88.8718 53.1095 88.8718 52.0979C88.8718 51.0894 88.8194 50.0928 88.7222 49.1157C88.5471 47.3964 89.4599 45.7759 90.9891 45.0801L96.0213 42.7937C97.3665 42.1817 98.577 41.3408 99.6185 40.2993L100.235 39.6828C105.055 34.8661 105.414 27.2962 101.056 22.4526C98.779 19.9237 95.6532 18.4798 92.258 18.3915C88.8868 18.2748 85.6352 19.611 83.2695 21.9767L82.2864 22.9598C81.2435 23.9998 80.404 25.2103 79.792 26.5585L78.5905 29.1965C75.4616 26.4148 71.7866 24.293 67.8184 22.9852L69.7008 17.962C70.2215 16.5869 70.4848 15.137 70.4848 13.6571V12.7802C70.4848 11.7268 70.3247 10.7213 70.0958 9.73969C78.158 7.39045 86.5091 6.13053 95.0008 6.13053C108.754 6.13053 122.137 9.31473 134.299 15.324H128.71C118.57 15.324 110.323 23.5703 110.323 33.711C110.323 43.8516 118.57 52.0979 128.71 52.0979H159.355C163.566 52.0979 167.437 50.66 170.54 48.2703C179.237 62.2999 183.871 78.3541 183.871 95.0008C183.871 95.7879 183.831 96.566 183.813 97.3486C176.21 82.8865 162.414 73.5494 147.097 73.5494C123.439 73.5494 104.194 95.5455 104.194 122.581C104.194 147.223 120.198 167.616 140.941 171.049C127.527 179.182 111.8 183.871 95.0008 183.871C83.5823 183.871 72.6725 181.683 62.6336 177.742ZM149.2 165.358C148.504 165.417 147.808 165.484 147.097 165.484C126.819 165.484 110.323 146.238 110.323 122.581C110.323 98.9227 126.819 79.6784 147.097 79.6784C163.507 79.6784 177.947 92.4915 182.418 110.893C180.257 122.81 175.719 133.904 169.306 143.668C168.751 142.981 168.172 142.387 167.651 141.866C166.149 140.364 165.484 139.626 165.484 137.904H159.355C159.355 142.237 161.645 144.53 163.317 146.199C164.494 147.376 165.144 148.1 165.373 149.182C160.697 155.239 155.258 160.679 149.2 165.358Z" fill="#232323"/>
<path d="M150.706 98.7858C153.7 101.385 156.291 103.634 156.291 110.324H162.42C162.42 100.836 158.15 97.1338 154.721 94.1591C151.975 91.7709 150.162 90.1998 150.162 85.808H144.032C144.032 92.9934 147.731 96.2061 150.706 98.7858Z" fill="#232323"/>
<path d="M131.775 134.84C131.775 127.69 129.008 123.997 126.564 120.743C124.336 117.777 122.581 115.432 122.581 110.324H116.452C116.452 117.473 119.219 121.166 121.662 124.421C123.889 127.387 125.646 129.731 125.646 134.84H131.775Z" fill="#232323"/>
<path d="M137.904 122.582V128.711C144.636 128.711 146.407 129.893 148.46 131.261C150.98 132.937 153.829 134.84 162.42 134.84V128.711C155.686 128.711 153.916 127.527 151.863 126.161C149.343 124.485 146.493 122.582 137.904 122.582Z" fill="#232323"/>
<path d="M136.482 103.098C137.181 100.686 137.904 98.1917 137.904 95.0015H131.775C131.775 97.3208 131.254 99.1164 130.594 101.391C129.755 104.286 128.71 107.894 128.71 113.389H134.839C134.839 108.763 135.673 105.883 136.482 103.098Z" fill="#232323"/>
<path d="M144.033 140.969V134.84C138.945 134.84 136.053 136.51 133.497 137.984C130.836 139.519 128.33 140.969 122.581 140.969V147.098C129.97 147.098 133.626 144.99 136.561 143.291C138.896 141.943 140.588 140.969 144.033 140.969Z" fill="#232323"/>
<path d="M171.613 116.453H177.742C177.742 112.12 175.453 109.827 173.78 108.157C172.277 106.655 171.613 105.917 171.613 104.195H165.484C165.484 108.528 167.773 110.821 169.446 112.491C170.949 113.992 171.613 114.731 171.613 116.453Z" fill="#232323"/>
<path d="M168.548 119.517H162.419C162.419 123.851 164.709 126.143 166.382 127.813C167.884 129.314 168.548 130.053 168.548 131.775H174.678C174.678 127.442 172.388 125.15 170.715 123.48C169.213 121.977 168.548 121.24 168.548 119.517Z" fill="#232323"/>
<path d="M144.033 116.453C144.033 114.731 144.697 113.992 146.199 112.491C147.872 110.821 150.162 108.528 150.162 104.195H144.033C144.033 105.917 143.368 106.655 141.866 108.157C140.193 109.827 137.904 112.12 137.904 116.453H144.033Z" fill="#232323"/>
<path d="M140.968 147.098H134.839C134.839 151.431 137.129 153.724 138.801 155.394C140.304 156.894 140.968 157.634 140.968 159.356H147.097C147.097 155.022 144.808 152.73 143.135 151.06C141.633 149.558 140.968 148.82 140.968 147.098Z" fill="#232323"/>
<path d="M153.226 140.969H147.097C147.097 145.302 149.386 147.595 151.059 149.264C152.562 150.765 153.226 151.505 153.226 153.227H159.355C159.355 148.893 157.066 146.601 155.393 144.931C153.89 143.429 153.226 142.691 153.226 140.969Z" fill="#232323"/>
<path d="M73.5492 165.485H79.6782C79.6782 161.151 77.3888 158.859 75.7159 157.189C74.2136 155.687 73.5492 154.949 73.5492 153.227H67.4202C67.4202 157.56 69.7096 159.853 71.3825 161.523C72.8848 163.023 73.5492 163.763 73.5492 165.485Z" fill="#232323"/>
<path d="M53.9518 163.789C54.7852 165.453 56.3324 168.549 61.2913 168.549V162.42C60.1212 162.42 60.1077 162.395 59.4374 161.05C58.6039 159.386 57.0567 156.291 52.0978 156.291V162.42C53.2679 162.42 53.2799 162.444 53.9518 163.789Z" fill="#232323"/>
<path d="M162.42 39.8406H168.549C168.549 35.5072 166.259 33.2148 164.586 31.5448C163.084 30.0425 162.42 29.3048 162.42 27.5825H156.291C156.291 31.9159 158.58 34.2083 160.253 35.8783C161.755 37.3791 162.42 38.1183 162.42 39.8406Z" fill="#232323"/>
<path d="M124.739 29.3109C123.883 30.493 123.774 30.6471 122.581 30.6471V36.7761C126.9 36.7761 128.587 34.4463 129.702 32.9081C130.723 31.4985 131.339 30.6471 134.839 30.6471V24.5181C128.725 24.5181 126.497 26.8868 124.739 29.3109Z" fill="#232323"/>
<path d="M142.179 38.4699C141.345 36.806 139.798 33.7115 134.839 33.7115V39.8406C136.009 39.8406 136.021 39.8645 136.693 41.2097C137.527 42.8737 139.074 45.9696 144.033 45.9696V39.8406C142.863 39.8406 142.849 39.8151 142.179 38.4699Z" fill="#232323"/>
<path d="M142.822 32.0163C143.656 33.6802 145.203 36.7761 150.162 36.7761V30.6471C148.992 30.6471 148.978 30.6217 148.308 29.2764C147.474 27.6125 145.927 24.5181 140.968 24.5181V30.6471C142.138 30.6471 142.15 30.671 142.822 32.0163Z" fill="#232323"/>
</g>
<defs>
<clipPath id="clip0">
<rect width="190" height="190" fill="white"/>
</clipPath>
</defs>
</svg>
