<svg width="240" height="240" viewBox="0 0 240 240" fill="none" xmlns="http://www.w3.org/2000/svg">
<g clip-path="url(#clip0)" filter="url(#filter0_d)">
<path d="M211.936 105.001C211.936 155.775 170.774 196.936 120.001 196.936C69.2271 196.936 28.0659 155.775 28.0659 105.001C28.0659 54.2278 69.2271 13.0667 120.001 13.0667C170.774 13.0667 211.936 54.2278 211.936 105.001Z" fill="#1ABC9C"/>
<path d="M210.556 120.783C208.044 135.401 202.099 148.793 193.549 160.162C188.4 167.057 182.271 173.186 175.407 178.365C174.303 178.457 173.2 178.549 172.097 178.549C150.094 178.549 132.259 157.955 132.259 132.582C132.259 107.207 150.094 86.6145 172.097 86.6145C190.545 86.6145 206.021 101.109 210.556 120.753V120.783Z" fill="#F5F7FA"/>
<path d="M196.154 53.4872C195.847 53.8553 195.54 54.2234 195.204 54.5601C192.414 57.3178 188.584 59.0341 184.355 59.0341H153.71C145.251 59.0341 138.388 52.1689 138.388 43.7116C138.388 39.483 140.104 35.6524 142.862 32.8632C145.651 30.1055 149.482 28.3892 153.71 28.3892H184.355C192.812 28.3892 199.678 35.2528 199.678 43.7116C199.678 47.4195 198.359 50.8207 196.154 53.4872Z" fill="#FF958A"/>
<path d="M74.1563 184.679C65.0855 179.468 56.9948 172.757 50.2523 164.851C52.214 158.599 57.945 154.034 64.8401 154.034H95.485C103.942 154.034 110.807 160.897 110.807 169.356C110.807 177.813 103.942 184.679 95.485 184.679H74.1563Z" fill="#FF958A"/>
<path d="M124.566 65.7451C125.609 65.3471 126.682 65.1631 127.785 65.1631H128.674C133.638 65.1631 138.112 68.9009 138.388 73.8657C138.663 79.1673 134.434 83.55 129.194 83.55H127.785C126.682 83.55 125.609 83.366 124.566 82.968L119.051 80.8836C118.346 80.6082 117.641 80.4855 116.936 80.4855C113.688 80.4855 110.807 83.1206 110.807 86.6145C110.807 87.7487 110.746 88.8515 110.593 89.9244C110.287 92.5595 111.726 95.0718 114.117 96.1447L119.755 98.7184C120.767 99.1792 121.656 99.7912 122.452 100.589L123.433 101.569C127.141 105.277 127.019 111.344 123.065 114.9C119.387 118.24 113.596 117.719 110.071 114.195L109.459 113.581C108.662 112.785 108.05 111.897 107.59 110.885L104.526 104.143C100.572 108.923 95.0554 112.356 88.7738 113.643L91.8383 121.825C92.2363 122.868 92.4203 123.941 92.4203 125.043V126.453C92.4203 131.693 88.0376 135.922 82.7361 135.646C77.7712 135.371 74.0334 130.896 74.0334 125.932V125.043C74.0334 123.941 74.2174 122.868 74.6155 121.825L77.68 113.643C71.3983 112.356 65.8814 108.923 61.928 104.143L58.8636 110.885C58.4042 111.897 57.7922 112.785 56.9946 113.581L56.0145 114.563C52.3066 118.271 46.239 118.148 42.6837 114.195C39.3439 110.517 39.8646 104.726 43.3885 101.201L44.002 100.589C44.798 99.7912 45.6868 99.1792 46.6984 98.7184L51.325 96.604C54.3282 95.2559 56.0145 92.13 55.7377 88.8201C55.6764 88.1153 55.6464 87.3492 55.6464 86.6145C55.6464 82.3545 51.3864 79.4127 47.4031 80.8836L41.8861 82.968C40.8447 83.366 39.7718 83.55 38.669 83.55H37.2595C34.9297 83.55 32.8154 82.6911 31.1918 81.2517C29.1389 79.474 27.9134 76.8075 28.066 73.8657C28.3413 68.9009 32.8154 65.1631 37.7802 65.1631H38.669C39.7718 65.1631 40.8447 65.3471 41.8861 65.7451L47.4031 67.8295C48.1079 68.1049 48.8127 68.2276 49.5174 68.2276C52.766 68.2276 55.6464 65.5925 55.6464 62.0986C55.6464 60.9644 55.7078 59.8616 55.8604 58.7887C56.1672 56.1536 54.7277 53.6398 52.3365 52.5684L46.6984 49.9932C45.6868 49.5339 44.798 48.9204 44.002 48.1243L43.0204 47.1442C39.3124 43.4363 39.4351 37.3687 43.3885 33.8134C47.0665 30.4735 52.8573 30.9943 56.3811 34.5181L56.9946 35.1301C57.7922 35.9277 58.4042 36.8165 58.8636 37.828L61.928 44.569C65.8814 39.7882 71.3983 36.3571 77.68 35.0703L74.6155 26.8868C74.2174 25.8454 74.0334 24.7725 74.0334 23.6697V22.2602C74.0334 17.02 78.4162 12.7914 83.7177 13.0667C86.8734 13.2507 89.5399 15.1197 91.0407 17.7248C91.9295 19.2256 92.4203 20.9733 92.4203 22.7809V23.6697C92.4203 24.7725 92.2363 25.8454 91.8383 26.8868L88.7738 35.0703C95.0554 36.3571 100.572 39.7882 104.526 44.569L107.59 37.828C108.05 36.8165 108.662 35.9277 109.459 35.1301L110.439 34.15C114.147 30.4421 120.215 30.5648 123.77 34.5181C127.11 38.1946 126.589 43.9869 123.065 47.5108L122.452 48.1243C121.656 48.9204 120.767 49.5339 119.755 49.9932L114.729 52.2916C111.971 53.5485 110.378 56.399 110.685 59.4321C110.746 60.291 110.807 61.2098 110.807 62.0986C110.807 66.3586 115.067 69.3004 119.051 67.8295L124.566 65.7451Z" fill="#F9D48A"/>
<path d="M80.1621 43.7115H86.2912V49.8406H80.1621V43.7115Z" fill="#232323"/>
<path d="M64.8402 55.9698H70.9692V62.0989H64.8402V55.9698Z" fill="#232323"/>
<path d="M67.9042 71.292H74.0332V77.421H67.9042V71.292Z" fill="#232323"/>
<path d="M80.1621 98.8724H86.2912V105.001H80.1621V98.8724Z" fill="#232323"/>
<path d="M95.4847 86.6145H101.614V92.7435H95.4847V86.6145Z" fill="#232323"/>
<path d="M64.8397 86.6145H70.9688V92.7435H64.8397V86.6145Z" fill="#232323"/>
<path d="M86.2911 71.292H92.4202V77.421H86.2911V71.292Z" fill="#232323"/>
<path d="M95.4847 52.905H101.614V59.0341H95.4847V52.905Z" fill="#232323"/>
<path d="M80.1621 55.9695H86.2912V62.0985H80.1621V55.9695Z" fill="#232323"/>
<path d="M98.5492 71.292H104.678V77.421H98.5492V71.292Z" fill="#232323"/>
<path d="M80.1621 83.5499H86.2912V89.6789H80.1621V83.5499Z" fill="#232323"/>
<path d="M199.833 53.5973C201.666 50.7378 202.742 47.3516 202.742 43.711C202.742 33.5703 194.496 25.324 184.355 25.324H171.714C156.315 15.309 138.455 10.0015 120.001 10.0015C110.541 10.0015 101.234 11.4485 92.2767 14.1778C90.1773 11.7732 87.2236 10.1946 83.8793 10.0195C80.4601 9.83246 77.2505 11.031 74.7875 13.3668C72.3605 15.6712 70.9689 18.9122 70.9689 22.2595V23.6571C70.9689 25.137 71.2322 26.5869 71.75 27.9591L73.6354 32.9882C69.6671 34.299 65.9951 36.4208 62.8632 39.1995L61.6617 36.5585C61.0497 35.2133 60.2057 34.0057 59.1733 32.9703L58.5508 32.3448C53.7311 27.5206 46.1641 27.169 41.3265 31.5263C38.7947 33.8067 37.3507 36.9296 37.2625 40.3248C37.1772 43.6706 38.482 46.9505 40.8477 49.3132L41.8353 50.3023C42.8767 51.3438 44.0842 52.1817 45.4324 52.7937L51.0557 55.3495C52.2482 55.8926 52.971 57.1421 52.8124 58.402C52.6582 59.6305 52.5819 60.8754 52.5819 62.0979C52.5819 63.1095 52.1061 64.0192 51.2726 64.5953C50.4362 65.1744 49.4127 65.2941 48.473 64.9484L42.959 62.876C41.5779 62.3583 40.1309 62.0979 38.657 62.0979H37.7802C30.9614 62.0979 25.3576 67.1944 25.0164 73.7035C24.8548 76.8009 25.8813 79.7307 27.8266 82.0935C25.9786 89.5587 25.0015 97.2498 25.0015 105.001C25.0015 157.382 67.6156 200 120.001 200C172.384 200 215 157.382 215 105.001C215 86.6318 209.729 68.9287 199.833 53.5973ZM196.613 43.711C196.613 50.4714 191.116 55.9689 184.355 55.9689H153.71C146.95 55.9689 141.452 50.4714 141.452 43.711C141.452 36.9505 146.95 31.453 153.71 31.453H184.355C191.116 31.453 196.613 36.9505 196.613 43.711ZM37.7802 68.2269H38.657C39.3917 68.2269 40.1219 68.3586 40.8088 68.616L46.3213 70.6839C49.1284 71.7358 52.2871 71.3468 54.7636 69.6335C57.237 67.9202 58.7109 65.1041 58.7109 62.0979C58.7109 61.1268 58.7753 60.1362 58.895 59.1621C59.3917 55.2118 57.261 51.4365 53.5964 49.7726L47.9732 47.2169C47.2984 46.9101 46.6953 46.4897 46.1776 45.9719L45.187 44.9799C43.9855 43.7783 43.348 42.1847 43.3944 40.4864C43.4378 38.7895 44.1606 37.2259 45.4294 36.0827C47.8101 33.9414 51.7515 34.2137 54.2189 36.6782L54.8429 37.3067C55.3606 37.8244 55.7811 38.4304 56.0878 39.0993L61.1814 50.3023L64.3042 46.5151C67.87 42.1877 72.8438 39.1905 78.3054 38.0788L81.8203 37.3605L77.4869 25.8043C77.2295 25.119 77.0979 24.3948 77.0979 23.6571V22.2595C77.0979 20.5612 77.7787 18.984 79.0102 17.8124C80.2417 16.6453 81.9026 16.0482 83.5575 16.1395C86.7537 16.3086 89.3559 19.2863 89.3559 22.7802V23.6571C89.3559 24.3948 89.2242 25.119 88.9638 25.8073L84.6334 37.3575L88.1483 38.0758C93.6099 39.1876 98.5822 42.1847 102.15 46.5121L105.272 50.2993L110.366 39.0993C110.676 38.4244 111.092 37.8184 111.614 37.2962L112.6 36.3101C113.798 35.1085 115.386 34.4741 117.095 34.5175C118.793 34.5609 120.357 35.2836 121.499 36.5525C123.641 38.9302 123.372 42.8745 120.899 45.351L120.279 45.9689C119.761 46.4867 119.158 46.9071 118.483 47.2139L113.451 49.5003C109.529 51.2824 107.188 55.3929 107.623 59.7322C107.702 60.5103 107.743 61.2974 107.743 62.0979C107.743 65.1041 109.217 67.9202 111.69 69.6335C114.167 71.3468 117.319 71.7418 120.135 70.6809L125.642 68.616C126.332 68.3586 127.062 68.2269 127.797 68.2269H128.674C132.17 68.2269 135.145 70.826 135.314 74.0222C135.403 75.728 134.809 77.3441 133.638 78.5756C132.47 79.8071 130.893 80.4849 129.194 80.4849H127.797C127.058 80.4849 126.332 80.3532 125.645 80.0958L120.132 78.0264C117.319 76.973 114.162 77.362 111.69 79.0783C109.217 80.7916 107.743 83.6077 107.743 86.6139C107.743 87.6134 107.678 88.5935 107.559 89.5527C107.062 93.503 109.193 97.2753 112.857 98.9392L118.481 101.495C119.155 101.802 119.758 102.221 120.276 102.738L121.267 103.732C122.468 104.931 123.106 106.527 123.059 108.224C123.016 109.922 122.293 111.484 121.024 112.628C118.647 114.773 114.705 114.498 112.235 112.034L111.611 111.405C111.092 110.887 110.673 110.281 110.366 109.613L105.272 98.4065L102.15 102.197C98.5822 106.524 93.6129 109.521 88.1483 110.633L84.6334 111.35L88.9668 122.906C89.2242 123.593 89.3559 124.316 89.3559 125.055V126.452C89.3559 128.149 88.675 129.728 87.4435 130.899C86.212 132.07 84.5287 132.652 82.8962 132.572C79.7 132.403 77.0979 129.424 77.0979 125.932V125.055C77.0979 124.316 77.2295 123.593 77.4899 122.903L81.8203 111.353L78.3054 110.636C72.8408 109.524 67.87 106.527 64.3042 102.2L61.1814 98.4095L56.0878 109.61C55.7781 110.284 55.3606 110.89 54.8399 111.411L53.8538 112.399C52.6523 113.597 51.0467 114.23 49.3573 114.191C47.6605 114.148 46.0968 113.425 44.9536 112.156C42.8124 109.779 43.0817 105.834 45.5551 103.358L46.1746 102.738C46.6924 102.221 47.2954 101.802 47.9702 101.495L52.5819 99.3986C56.6849 97.5356 59.1793 93.1873 58.7932 88.5816C58.7408 87.9351 58.7109 87.2783 58.7109 86.6139C58.7109 83.6077 57.237 80.7916 54.7636 79.0783C52.2901 77.365 49.1344 76.973 46.3183 78.0294L40.8088 80.0988C40.1219 80.3532 39.3947 80.4849 38.657 80.4849H37.2595C35.5611 80.4849 33.984 79.8071 32.8153 78.5726C31.6452 77.3411 31.0512 75.7251 31.1395 74.0222C31.3085 70.826 34.2833 68.2269 37.7802 68.2269ZM53.8074 164.218C55.7901 159.907 60.0292 157.097 64.8399 157.097H95.4848C102.245 157.097 107.743 162.595 107.743 169.355C107.743 176.116 102.245 181.613 95.4848 181.613H75.0419C70.2821 178.809 65.808 175.572 61.6677 171.96C63.8897 171.206 65.021 169.674 65.832 168.552C66.8525 167.142 67.469 166.291 70.9689 166.291V160.162C64.8549 160.162 62.6268 162.53 60.8686 164.954C60.0127 166.137 59.9035 166.291 58.7109 166.291V169.262C57.0126 167.642 55.3741 165.969 53.8074 164.218ZM87.6336 187.742H95.4848C105.625 187.742 113.872 179.496 113.872 169.355C113.872 159.215 105.625 150.968 95.4848 150.968H64.8399C58.5703 150.968 52.962 154.14 49.6312 159.185C38.0465 144.173 31.1305 125.382 31.1305 105.001C31.1305 98.5412 31.8622 92.1294 33.2358 85.8717C34.5257 86.3221 35.8739 86.6139 37.2595 86.6139H38.657C40.1339 86.6139 41.5839 86.3535 42.962 85.8328L48.47 83.7663C49.4217 83.4117 50.4362 83.5374 51.2726 84.1165C52.1061 84.6926 52.5819 85.6024 52.5819 86.6139C52.5819 87.4443 52.6193 88.2688 52.6867 89.0903C52.8573 91.1582 51.8248 93.0152 50.0471 93.8217L45.4324 95.9211C44.0872 96.5331 42.8767 97.3725 41.8353 98.4155L41.2188 99.0305C36.3976 103.849 36.0399 111.417 40.3973 116.262C42.6747 118.791 45.8005 120.234 49.1957 120.323C52.5296 120.412 55.8185 119.104 58.1842 116.738L59.1673 115.753C60.2087 114.715 61.0497 113.505 61.6617 112.156L62.8632 109.521C65.9921 112.3 69.6671 114.42 73.6354 115.733L71.753 120.756C71.2322 122.125 70.9689 123.575 70.9689 125.055V125.932C70.9689 132.746 76.0654 138.351 82.5715 138.692C82.7944 138.704 83.0189 138.71 83.2388 138.71C86.3931 138.71 89.3618 137.527 91.6632 135.345C94.0932 133.041 95.4848 129.798 95.4848 126.452V125.055C95.4848 123.575 95.2215 122.125 94.7038 120.753L92.8184 115.724C96.7866 114.411 100.459 112.291 103.59 109.512L104.792 112.153C105.404 113.499 106.248 114.706 107.28 115.742L107.901 116.367C112.723 121.187 120.285 121.54 125.127 117.185C127.659 114.905 129.101 111.779 129.191 108.387C129.277 105.041 127.972 101.764 125.606 99.4016L124.618 98.4125C123.577 97.3695 122.369 96.5331 121.021 95.9211L115.398 93.3653C114.205 92.8222 113.483 91.5727 113.641 90.3128C113.795 89.0813 113.872 87.8334 113.872 86.6139C113.872 85.6024 114.346 84.6926 115.18 84.1165C116.013 83.5344 117.038 83.4117 117.981 83.7663L123.492 85.8358C124.87 86.3535 126.32 86.6139 127.797 86.6139H129.194C132.54 86.6139 135.78 85.2223 138.084 82.7952C140.423 80.3308 141.611 77.1047 141.437 73.7035C141.096 67.1944 135.492 62.0979 128.674 62.0979H127.797C126.326 62.0979 124.876 62.3583 123.492 62.879L117.984 64.944C117.034 65.3001 116.018 65.1774 115.18 64.5953C114.346 64.0192 113.872 63.1095 113.872 62.0979C113.872 61.0894 113.819 60.0928 113.722 59.1157C113.547 57.3964 114.46 55.7759 115.989 55.0801L121.021 52.7937C122.366 52.1817 123.577 51.3408 124.618 50.2993L125.235 49.6828C130.055 44.8661 130.414 37.2962 126.056 32.4526C123.779 29.9237 120.653 28.4798 117.258 28.3915C113.887 28.2748 110.635 29.611 108.27 31.9767L107.286 32.9598C106.243 33.9998 105.404 35.2103 104.792 36.5585L103.59 39.1965C100.462 36.4148 96.7866 34.293 92.8184 32.9852L94.7008 27.962C95.2215 26.5869 95.4848 25.137 95.4848 23.6571V22.7802C95.4848 21.7268 95.3247 20.7213 95.0958 19.7397C103.158 17.3904 111.509 16.1305 120.001 16.1305C133.754 16.1305 147.137 19.3147 159.299 25.324H153.71C143.57 25.324 135.323 33.5703 135.323 43.711C135.323 53.8516 143.57 62.0979 153.71 62.0979H184.355C188.566 62.0979 192.437 60.66 195.54 58.2703C204.237 72.2999 208.871 88.3541 208.871 105.001C208.871 105.788 208.831 106.566 208.813 107.349C201.21 92.8865 187.414 83.5494 172.097 83.5494C148.439 83.5494 129.194 105.545 129.194 132.581C129.194 157.223 145.198 177.616 165.941 181.049C152.527 189.182 136.8 193.871 120.001 193.871C108.582 193.871 97.6725 191.683 87.6336 187.742ZM174.2 175.358C173.504 175.417 172.808 175.484 172.097 175.484C151.819 175.484 135.323 156.238 135.323 132.581C135.323 108.923 151.819 89.6784 172.097 89.6784C188.507 89.6784 202.947 102.491 207.418 120.893C205.257 132.81 200.719 143.904 194.306 153.668C193.751 152.981 193.172 152.387 192.651 151.866C191.149 150.364 190.484 149.626 190.484 147.904H184.355C184.355 152.237 186.645 154.53 188.317 156.199C189.494 157.376 190.144 158.1 190.373 159.182C185.697 165.239 180.258 170.679 174.2 175.358Z" fill="#232323"/>
<path d="M175.706 108.786C178.7 111.385 181.291 113.634 181.291 120.324H187.42C187.42 110.836 183.15 107.134 179.721 104.159C176.975 101.771 175.162 100.2 175.162 95.808H169.032C169.032 102.993 172.731 106.206 175.706 108.786Z" fill="#232323"/>
<path d="M156.775 144.84C156.775 137.69 154.008 133.997 151.564 130.743C149.336 127.777 147.581 125.432 147.581 120.324H141.452C141.452 127.473 144.219 131.166 146.662 134.421C148.889 137.387 150.646 139.731 150.646 144.84H156.775Z" fill="#232323"/>
<path d="M162.904 132.582V138.711C169.636 138.711 171.407 139.893 173.46 141.261C175.98 142.937 178.829 144.84 187.42 144.84V138.711C180.686 138.711 178.916 137.527 176.863 136.161C174.343 134.485 171.493 132.582 162.904 132.582Z" fill="#232323"/>
<path d="M161.482 113.098C162.181 110.686 162.904 108.192 162.904 105.001H156.775C156.775 107.321 156.254 109.116 155.594 111.391C154.755 114.286 153.71 117.894 153.71 123.389H159.839C159.839 118.763 160.673 115.883 161.482 113.098Z" fill="#232323"/>
<path d="M169.033 150.969V144.84C163.945 144.84 161.053 146.51 158.497 147.984C155.836 149.519 153.33 150.969 147.581 150.969V157.098C154.97 157.098 158.626 154.99 161.561 153.291C163.896 151.943 165.588 150.969 169.033 150.969Z" fill="#232323"/>
<path d="M196.613 126.453H202.742C202.742 122.12 200.453 119.827 198.78 118.157C197.277 116.655 196.613 115.917 196.613 114.195H190.484C190.484 118.528 192.773 120.821 194.446 122.491C195.949 123.992 196.613 124.731 196.613 126.453Z" fill="#232323"/>
<path d="M193.548 129.517H187.419C187.419 133.851 189.709 136.143 191.382 137.813C192.884 139.314 193.548 140.053 193.548 141.775H199.678C199.678 137.442 197.388 135.15 195.715 133.48C194.213 131.977 193.548 131.24 193.548 129.517Z" fill="#232323"/>
<path d="M169.033 126.453C169.033 124.731 169.697 123.992 171.199 122.491C172.872 120.821 175.162 118.528 175.162 114.195H169.033C169.033 115.917 168.368 116.655 166.866 118.157C165.193 119.827 162.904 122.12 162.904 126.453H169.033Z" fill="#232323"/>
<path d="M165.968 157.098H159.839C159.839 161.431 162.129 163.724 163.801 165.394C165.304 166.894 165.968 167.634 165.968 169.356H172.097C172.097 165.022 169.808 162.73 168.135 161.06C166.633 159.558 165.968 158.82 165.968 157.098Z" fill="#232323"/>
<path d="M178.226 150.969H172.097C172.097 155.302 174.386 157.595 176.059 159.264C177.562 160.765 178.226 161.505 178.226 163.227H184.355C184.355 158.893 182.066 156.601 180.393 154.931C178.89 153.429 178.226 152.691 178.226 150.969Z" fill="#232323"/>
<path d="M98.5492 175.485H104.678C104.678 171.151 102.389 168.859 100.716 167.189C99.2136 165.687 98.5492 164.949 98.5492 163.227H92.4202C92.4202 167.56 94.7096 169.853 96.3825 171.523C97.8848 173.023 98.5492 173.763 98.5492 175.485Z" fill="#232323"/>
<path d="M78.9518 173.789C79.7852 175.453 81.3324 178.549 86.2913 178.549V172.42C85.1212 172.42 85.1077 172.395 84.4374 171.05C83.6039 169.386 82.0567 166.291 77.0978 166.291V172.42C78.2679 172.42 78.2799 172.444 78.9518 173.789Z" fill="#232323"/>
<path d="M187.42 49.8406H193.549C193.549 45.5072 191.259 43.2148 189.586 41.5448C188.084 40.0425 187.42 39.3048 187.42 37.5825H181.291C181.291 41.9159 183.58 44.2083 185.253 45.8783C186.755 47.3791 187.42 48.1183 187.42 49.8406Z" fill="#232323"/>
<path d="M149.739 39.3109C148.883 40.493 148.774 40.6471 147.581 40.6471V46.7761C151.9 46.7761 153.587 44.4463 154.702 42.9081C155.723 41.4985 156.339 40.6471 159.839 40.6471V34.5181C153.725 34.5181 151.497 36.8868 149.739 39.3109Z" fill="#232323"/>
<path d="M167.179 48.4699C166.345 46.806 164.798 43.7115 159.839 43.7115V49.8406C161.009 49.8406 161.021 49.8645 161.693 51.2097C162.527 52.8737 164.074 55.9696 169.033 55.9696V49.8406C167.863 49.8406 167.849 49.8151 167.179 48.4699Z" fill="#232323"/>
<path d="M167.822 42.0163C168.656 43.6802 170.203 46.7761 175.162 46.7761V40.6471C173.992 40.6471 173.978 40.6217 173.308 39.2764C172.474 37.6125 170.927 34.5181 165.968 34.5181V40.6471C167.138 40.6471 167.15 40.671 167.822 42.0163Z" fill="#232323"/>
</g>
<defs>
<filter id="filter0_d" x="0" y="0" width="240" height="240" filterUnits="userSpaceOnUse" color-interpolation-filters="sRGB">
<feFlood flood-opacity="0" result="BackgroundImageFix"/>
<feColorMatrix in="SourceAlpha" type="matrix" values="0 0 0 0 0 0 0 0 0 0 0 0 0 0 0 0 0 0 127 0"/>
<feOffset dy="15"/>
<feGaussianBlur stdDeviation="12.5"/>
<feColorMatrix type="matrix" values="0 0 0 0 0 0 0 0 0 0 0 0 0 0 0 0 0 0 0.25 0"/>
<feBlend mode="normal" in2="BackgroundImageFix" result="effect1_dropShadow"/>
<feBlend mode="normal" in="SourceGraphic" in2="effect1_dropShadow" result="shape"/>
</filter>
<clipPath id="clip0">
<rect width="190" height="190" fill="white" transform="translate(25 10)"/>
</clipPath>
</defs>
</svg>
